<svg width="223" height="123" viewBox="0 0 223 123" fill="none" xmlns="http://www.w3.org/2000/svg">
<path d="M37.0456 11.8799V88.1999L23.1256 74.2799H90.0856V101.88H6.08556V11.8799H37.0456ZM182.229 11.8799C190.389 11.8799 197.349 13.2399 203.109 15.9599C208.949 18.5999 213.389 22.3999 216.429 27.3599C219.469 32.2399 220.989 37.9999 220.989 44.6399C220.989 51.2799 219.469 57.0799 216.429 62.0399C213.389 66.9199 208.949 70.7199 203.109 73.4399C197.349 76.0799 190.389 77.3999 182.229 77.3999H144.189V53.2799H180.189C183.229 53.2799 185.589 52.5199 187.269 50.9999C188.949 49.4799 189.789 47.3599 189.789 44.6399C189.789 41.8399 188.949 39.7199 187.269 38.2799C185.589 36.7599 183.229 35.9999 180.189 35.9999H146.829L160.749 22.0799V101.88H129.789V11.8799H182.229ZM0 113.454H1.10156V120.978H4.55273V121.88H0V113.454ZM15.7582 113.454H16.8598V121.88H15.7582V113.454ZM34.4402 113.454H35.5945L32.448 121.892H31.4695L28.3172 113.454H29.4715L31.9617 120.538L34.4402 113.454ZM47.052 113.454H48.1535V121.88H47.052V113.454ZM66.8648 121.938H65.5758L61.0934 114.896V121.88H59.9918V113.454H61.2809L65.7633 120.497V113.454H66.8648V121.938ZM84.8789 121.429C84.4141 121.62 83.9316 121.767 83.4316 121.868C82.9355 121.97 82.4531 122.021 81.9844 122.021C81.375 122.021 80.834 121.935 80.3613 121.763C79.8926 121.591 79.498 121.329 79.1777 120.978C78.8574 120.626 78.6133 120.185 78.4453 119.653C78.2812 119.118 78.1992 118.489 78.1992 117.767C78.1992 116.981 78.2832 116.308 78.4512 115.745C78.623 115.183 78.8711 114.724 79.1953 114.368C79.5195 114.009 79.918 113.745 80.3906 113.577C80.8672 113.409 81.4102 113.325 82.0195 113.325C82.3984 113.325 82.7969 113.364 83.2148 113.442C83.6328 113.517 84.0625 113.624 84.5039 113.765L84.1934 114.644C83.7988 114.511 83.4277 114.411 83.0801 114.345C82.7363 114.278 82.3887 114.245 82.0371 114.245C81.584 114.245 81.1875 114.312 80.8477 114.444C80.5078 114.577 80.2246 114.782 79.998 115.06C79.7754 115.337 79.6074 115.69 79.4941 116.12C79.3848 116.55 79.3301 117.062 79.3301 117.655C79.3301 118.241 79.3809 118.751 79.4824 119.185C79.5879 119.618 79.748 119.978 79.9629 120.263C80.1777 120.544 80.4512 120.755 80.7832 120.896C81.1152 121.032 81.5078 121.101 81.9609 121.101C82.2812 121.101 82.6035 121.067 82.9277 121.001C83.252 120.935 83.5488 120.856 83.8184 120.767V118.435H82.4062V117.55H84.8789V121.429ZM109.511 113.454H110.612V121.88H109.511V113.454ZM129.323 121.938H128.034L123.552 114.896V121.88H122.45V113.454H123.739L128.222 120.497V113.454H129.323V121.938ZM156.691 113.454C157.078 113.454 157.439 113.497 157.775 113.583C158.111 113.665 158.402 113.802 158.648 113.993C158.898 114.181 159.094 114.427 159.234 114.731C159.379 115.036 159.451 115.407 159.451 115.845C159.451 116.333 159.369 116.731 159.205 117.04C159.041 117.349 158.818 117.593 158.537 117.772C158.26 117.952 157.936 118.075 157.564 118.142C157.197 118.208 156.809 118.241 156.398 118.241C156.176 118.241 155.957 118.233 155.742 118.218C155.531 118.202 155.332 118.185 155.145 118.165V121.88H154.055V113.454H156.691ZM155.145 117.286C155.332 117.31 155.527 117.329 155.73 117.345C155.938 117.356 156.145 117.362 156.352 117.362C156.648 117.362 156.92 117.345 157.166 117.31C157.416 117.271 157.629 117.196 157.805 117.087C157.98 116.978 158.117 116.823 158.215 116.624C158.312 116.425 158.361 116.165 158.361 115.845C158.361 115.552 158.32 115.31 158.238 115.118C158.156 114.923 158.041 114.767 157.893 114.649C157.748 114.532 157.572 114.45 157.365 114.403C157.162 114.356 156.938 114.333 156.691 114.333H155.145V117.286ZM170.914 113.454H172.016V121.88H170.914V113.454ZM183.503 113.923L184.358 113.308L186.907 116.87L189.175 113.454H190.458L187.557 117.708L190.229 121.382L189.345 122.015L186.913 118.593L184.727 121.88H183.456L186.263 117.755L183.503 113.923ZM201.775 113.454H206.45V114.356H202.876V116.683H205.407V117.585H202.876V120.978H206.585V121.88H201.775V113.454ZM218.084 113.454H219.185V120.978H222.636V121.88H218.084V113.454Z" fill="white"/>
<path d="M92.3956 31.4399L107.636 34.5599L122.876 31.4399V101.88H92.3956V31.4399ZM107.636 27.8399C102.516 27.8399 98.3956 26.5999 95.2756 24.1199C92.1556 21.6399 90.5956 18.2399 90.5956 13.9199C90.5956 9.59988 92.1556 6.19988 95.2756 3.71988C98.3956 1.23988 102.516 -0.000121593 107.636 -0.000121593C112.836 -0.000121593 116.956 1.23988 119.996 3.71988C123.116 6.19988 124.676 9.59988 124.676 13.9199C124.676 18.2399 123.116 21.6399 119.996 24.1199C116.956 26.5999 112.836 27.8399 107.636 27.8399Z" fill="#5282FF"/>
</svg>
