<svg width="351" height="70" viewBox="0 0 351 70" fill="none" xmlns="http://www.w3.org/2000/svg">
<path d="M5.82039e-05 52.984V7.27177e-06H5.88306V47.397H30.1181V52.984H5.82039e-05ZM32.0351 52.984V14.763H37.8811V52.984H32.0351ZM34.9581 8.39901C33.8481 8.39901 32.8984 8.00434 32.1091 7.215C31.3198 6.401 30.9251 5.43901 30.9251 4.32901C30.9251 3.19434 31.3198 2.24467 32.1091 1.48001C32.8984 0.715339 33.8481 0.333005 34.9581 0.333005C36.1174 0.333005 37.0794 0.715339 37.8441 1.48001C38.6088 2.24467 38.9911 3.19434 38.9911 4.32901C38.9911 5.43901 38.6088 6.401 37.8441 7.215C37.0794 8.00434 36.1174 8.39901 34.9581 8.39901ZM53.7957 52.984L38.3297 14.763H44.5827L56.0897 44.178L56.5707 45.436H56.6817L57.2367 44.104L68.7807 14.763H74.7747L59.2717 52.984H53.7957ZM75.2962 52.984V14.763H81.1422V52.984H75.2962ZM78.2192 8.39901C77.1092 8.39901 76.1596 8.00434 75.3702 7.215C74.5809 6.401 74.1862 5.43901 74.1862 4.32901C74.1862 3.19434 74.5809 2.24467 75.3702 1.48001C76.1596 0.715339 77.1092 0.333005 78.2192 0.333005C79.3786 0.333005 80.3406 0.715339 81.1052 1.48001C81.8699 2.24467 82.2522 3.19434 82.2522 4.32901C82.2522 5.43901 81.8699 6.401 81.1052 7.215C80.3406 8.00434 79.3786 8.39901 78.2192 8.39901ZM85.9568 52.984V14.763H91.5808V21.386L90.6928 20.535H91.6918C92.8512 18.611 94.5778 17.0077 96.8718 15.725C99.1658 14.4423 101.596 13.801 104.161 13.801C108.576 13.801 112.005 15.133 114.447 17.797C116.889 20.461 118.11 24.05 118.11 28.564V52.984H112.264V29.526C112.264 26.2947 111.487 23.7787 109.933 21.978C108.379 20.1527 105.974 19.24 102.718 19.24C99.6838 19.24 97.0938 20.3993 94.9478 22.718C92.8265 25.012 91.7658 27.861 91.7658 31.265V52.984H85.9568ZM138.518 69.079C135.928 69.079 133.584 68.7337 131.488 68.043C129.391 67.377 127.529 66.415 125.901 65.157C124.273 63.9237 123.002 62.567 122.09 61.087C121.202 59.607 120.758 58.867 120.758 58.867L125.864 55.981C125.864 55.981 126.246 56.573 127.011 57.757C127.8 58.9657 128.725 60.014 129.786 60.902C130.846 61.79 132.104 62.4683 133.56 62.937C135.015 63.4303 136.68 63.677 138.555 63.677C142.748 63.677 145.955 62.4807 148.175 60.088C150.419 57.72 151.542 54.464 151.542 50.32V46.324H151.431C150.197 48.248 148.397 49.8637 146.029 51.171C143.685 52.4783 140.861 53.132 137.556 53.132C132.474 53.132 128.17 51.282 124.643 47.582C121.14 43.8573 119.389 39.1337 119.389 33.411C119.389 27.7623 121.128 23.088 124.606 19.388C128.108 15.6633 132.585 13.801 138.037 13.801C140.923 13.801 143.599 14.43 146.066 15.688C148.557 16.946 150.407 18.5493 151.616 20.498H153.207L151.727 22.57V14.763H157.388V50.209C157.388 56.055 155.735 60.6553 152.43 64.01C149.124 67.3893 144.487 69.079 138.518 69.079ZM138.518 47.767C142.341 47.767 145.523 46.4597 148.064 43.845C150.604 41.2303 151.862 37.7277 151.838 33.337C151.813 29.0203 150.543 25.5793 148.027 23.014C145.511 20.4487 142.341 19.166 138.518 19.166C134.694 19.166 131.525 20.461 129.009 23.051C126.517 25.641 125.272 29.0943 125.272 33.411C125.272 37.851 126.517 41.3537 129.009 43.919C131.525 46.4843 134.694 47.767 138.518 47.767ZM173.67 52.984V14.763H179.516V52.984H173.67ZM176.593 8.39901C175.483 8.39901 174.533 8.00434 173.744 7.215C172.955 6.401 172.56 5.43901 172.56 4.32901C172.56 3.19434 172.955 2.24467 173.744 1.48001C174.533 0.715339 175.483 0.333005 176.593 0.333005C177.752 0.333005 178.714 0.715339 179.479 1.48001C180.244 2.24467 180.626 3.19434 180.626 4.32901C180.626 5.43901 180.244 6.401 179.479 7.215C178.714 8.00434 177.752 8.39901 176.593 8.39901ZM184.331 52.984V14.763H189.955V21.386L189.067 20.535H190.066C191.225 18.611 192.952 17.0077 195.246 15.725C197.54 14.4423 199.969 13.801 202.535 13.801C206.95 13.801 210.379 15.133 212.821 17.797C215.263 20.461 216.484 24.05 216.484 28.564V52.984H210.638V29.526C210.638 26.2947 209.861 23.7787 208.307 21.978C206.753 20.1527 204.348 19.24 201.092 19.24C198.058 19.24 195.468 20.3993 193.322 22.718C191.2 25.012 190.14 27.861 190.14 31.265V52.984H184.331ZM232.348 52.984V7.27177e-06H250.145C255.227 7.27177e-06 259.334 1.51701 262.466 4.55101C265.599 7.56034 267.165 11.618 267.165 16.724C267.165 21.8793 265.574 25.9123 262.392 28.823C259.235 31.709 255.054 33.152 249.849 33.152H235.567V27.602H250.071C253.475 27.602 256.176 26.677 258.174 24.827C260.172 22.9523 261.171 20.2513 261.171 16.724C261.171 13.2213 260.148 10.508 258.1 8.58401C256.053 6.66001 253.327 5.698 249.923 5.698H238.231V52.984H232.348ZM269.587 52.984V14.763H275.433V52.984H269.587ZM272.51 8.39901C271.4 8.39901 270.45 8.00434 269.661 7.215C268.871 6.401 268.477 5.43901 268.477 4.32901C268.477 3.19434 268.871 2.24467 269.661 1.48001C270.45 0.715339 271.4 0.333005 272.51 0.333005C273.669 0.333005 274.631 0.715339 275.396 1.48001C276.16 2.24467 276.543 3.19434 276.543 4.32901C276.543 5.43901 276.16 6.401 275.396 7.215C274.631 8.00434 273.669 8.39901 272.51 8.39901ZM303.372 52.984L291.68 35.557H290.903L276.14 14.763H282.911L294.825 32.079H295.417L310.106 52.984H303.372ZM275.881 52.984L290.57 31.82H291.643L303.113 14.763H309.625L295.343 35.15H294.455L282.43 52.984H275.881ZM325.587 53.946C320.086 53.946 315.486 52.059 311.786 48.285C308.086 44.4863 306.236 39.664 306.236 33.818C306.236 28.046 308.061 23.273 311.712 19.499C315.387 15.7003 319.889 13.801 325.217 13.801C330.717 13.801 335.145 15.4783 338.5 18.833C341.854 22.1877 343.532 26.3933 343.532 31.45V35.113H309.529V30.118H337.39C337.266 26.9853 336.095 24.383 333.875 22.311C331.655 20.239 328.769 19.203 325.217 19.203C321.467 19.203 318.335 20.572 315.819 23.31C313.327 26.0233 312.082 29.526 312.082 33.818C312.082 38.2087 313.426 41.7607 316.115 44.474C318.828 47.1627 322.035 48.507 325.735 48.507C327.609 48.507 329.225 48.248 330.582 47.73C331.938 47.212 333.159 46.472 334.245 45.51C335.33 44.548 336.489 43.068 337.723 41.07L342.755 43.438C341.423 46.1267 339.943 48.1863 338.315 49.617C336.687 51.0477 334.849 52.133 332.802 52.873C330.779 53.5883 328.374 53.946 325.587 53.946ZM345.044 52.984V7.27177e-06H350.853V52.984H345.044Z" fill="black"/>
</svg>
