<svg width="126" height="71" viewBox="0 0 126 71" fill="none" xmlns="http://www.w3.org/2000/svg">
<path d="M25.2311 5.18994V43.9859L18.1551 36.9099H52.1931V50.9399H9.49311V5.18994H25.2311ZM98.2359 5.93994C102.316 5.93994 105.796 6.61994 108.676 7.97994C111.596 9.29994 113.816 11.1999 115.336 13.6799C116.856 16.1199 117.616 18.9999 117.616 22.3199C117.616 25.6399 116.856 28.5399 115.336 31.0199C113.816 33.4599 111.596 35.3599 108.676 36.7199C105.796 38.0399 102.316 38.6999 98.2359 38.6999H79.2159V26.6399H97.2159C98.7359 26.6399 99.9159 26.2599 100.756 25.4999C101.596 24.7399 102.016 23.6799 102.016 22.3199C102.016 20.9199 101.596 19.8599 100.756 19.1399C99.9159 18.3799 98.7359 17.9999 97.2159 17.9999H80.5359L87.4959 11.0399V50.9399H72.0159V5.93994H98.2359ZM-1.90735e-05 61.5142H1.10154V69.0376H4.55272V69.9399H-1.90735e-05V61.5142ZM8.79818 61.5142H9.89975V69.9399H8.79818V61.5142ZM20.5202 61.5142H21.6745L18.528 69.9517H17.5495L14.3972 61.5142H15.5515L18.0417 68.5981L20.5202 61.5142ZM26.1719 61.5142H27.2735V69.9399H26.1719V61.5142ZM39.0248 69.9985H37.7358L33.2533 62.9556V69.9399H32.1518V61.5142H33.4408L37.9233 68.5571V61.5142H39.0248V69.9985ZM50.0789 69.4888C49.614 69.6802 49.1316 69.8267 48.6316 69.9282C48.1355 70.0298 47.6531 70.0806 47.1844 70.0806C46.575 70.0806 46.034 69.9946 45.5613 69.8228C45.0926 69.6509 44.698 69.3892 44.3777 69.0376C44.0574 68.686 43.8133 68.2446 43.6453 67.7134C43.4812 67.1782 43.3992 66.5493 43.3992 65.8267C43.3992 65.0415 43.4832 64.3677 43.6512 63.8052C43.823 63.2427 44.0711 62.7837 44.3953 62.4282C44.7195 62.0688 45.118 61.8052 45.5906 61.6372C46.0672 61.4692 46.6101 61.3853 47.2195 61.3853C47.5984 61.3853 47.9969 61.4243 48.4148 61.5024C48.8328 61.5767 49.2625 61.6841 49.7039 61.8247L49.3933 62.7036C48.9988 62.5708 48.6277 62.4712 48.2801 62.4048C47.9363 62.3384 47.5887 62.3052 47.2371 62.3052C46.784 62.3052 46.3875 62.3716 46.0476 62.5044C45.7078 62.6372 45.4246 62.8423 45.198 63.1196C44.9754 63.397 44.8074 63.7505 44.6941 64.1802C44.5847 64.6099 44.5301 65.1216 44.5301 65.7153C44.5301 66.3013 44.5808 66.811 44.6824 67.2446C44.7879 67.6782 44.948 68.0376 45.1629 68.3228C45.3777 68.604 45.6512 68.8149 45.9832 68.9556C46.3152 69.0923 46.7078 69.1606 47.1609 69.1606C47.4812 69.1606 47.8035 69.1274 48.1277 69.061C48.4519 68.9946 48.7488 68.9165 49.0183 68.8267V66.4946H47.6062V65.6099H50.0789V69.4888ZM60.7905 61.5142H61.8921V69.9399H60.7905V61.5142ZM73.6434 69.9985H72.3544L67.8719 62.9556V69.9399H66.7704V61.5142H68.0594L72.5419 68.5571V61.5142H73.6434V69.9985ZM87.0914 61.5142C87.4781 61.5142 87.8394 61.5571 88.1754 61.6431C88.5113 61.7251 88.8023 61.8618 89.0484 62.0532C89.2984 62.2407 89.4937 62.4868 89.6344 62.7915C89.7789 63.0962 89.8512 63.4673 89.8512 63.9048C89.8512 64.3931 89.7691 64.7915 89.6051 65.1001C89.441 65.4087 89.2183 65.6528 88.9371 65.8325C88.6597 66.0122 88.3355 66.1353 87.9644 66.2017C87.5972 66.2681 87.2086 66.3013 86.7984 66.3013C86.5758 66.3013 86.357 66.2935 86.1422 66.2778C85.9312 66.2622 85.732 66.2446 85.5445 66.2251V69.9399H84.4547V61.5142H87.0914ZM85.5445 65.3462C85.732 65.3696 85.9273 65.3892 86.1304 65.4048C86.3375 65.4165 86.5445 65.4224 86.7515 65.4224C87.0484 65.4224 87.3199 65.4048 87.566 65.3696C87.816 65.3306 88.0289 65.2563 88.2047 65.147C88.3804 65.0376 88.5172 64.8833 88.6148 64.6841C88.7125 64.4849 88.7613 64.2251 88.7613 63.9048C88.7613 63.6118 88.7203 63.3696 88.6383 63.1782C88.5562 62.9829 88.441 62.8267 88.2926 62.7095C88.148 62.5923 87.9722 62.5103 87.7652 62.4634C87.5621 62.4165 87.3375 62.3931 87.0914 62.3931H85.5445V65.3462ZM94.3544 61.5142H95.456V69.9399H94.3544V61.5142ZM99.9827 61.9829L100.838 61.3677L103.387 64.9302L105.655 61.5142H106.938L104.037 65.7681L106.709 69.4419L105.825 70.0747L103.393 66.6528L101.207 69.9399H99.9358L102.742 65.8149L99.9827 61.9829ZM111.295 61.5142H115.97V62.4165H112.396V64.7427H114.927V65.645H112.396V69.0376H116.105V69.9399H111.295V61.5142ZM120.644 61.5142H121.745V69.0376H125.196V69.9399H120.644V61.5142Z" fill="white"/>
<path d="M53.3194 15.7199L60.9394 17.2799L68.5594 15.7199V50.9399H53.3194V15.7199ZM60.9394 13.9199C58.3794 13.9199 56.3194 13.2999 54.7594 12.0599C53.1994 10.8199 52.4194 9.11994 52.4194 6.95994C52.4194 4.79994 53.1994 3.09994 54.7594 1.85994C56.3194 0.61994 58.3794 -6.07967e-05 60.9394 -6.07967e-05C63.5394 -6.07967e-05 65.5994 0.61994 67.1194 1.85994C68.6794 3.09994 69.4594 4.79994 69.4594 6.95994C69.4594 9.11994 68.6794 10.8199 67.1194 12.0599C65.5994 13.2999 63.5394 13.9199 60.9394 13.9199Z" fill="#5282FF"/>
</svg>
